<svg width="18" height="18" fill="none" xmlns="http://www.w3.org/2000/svg"><path d="M16.875 5.052h-3.56c.256-.175.475-.348.628-.503a2.353 2.353 0 000-3.31c-.88-.886-2.417-.888-3.3 0-.487.49-1.781 2.482-1.603 3.813h-.08c.177-1.331-1.117-3.324-1.604-3.813-.882-.888-2.418-.886-3.3 0a2.355 2.355 0 000 3.31c.154.155.373.328.628.503H1.125C.505 5.052 0 5.557 0 6.177v2.812c0 .31.252.563.563.563h.562v6.75c0 .62.505 1.125 1.125 1.125h13.5c.62 0 1.125-.505 1.125-1.125v-6.75h.563c.31 0 .562-.252.562-.563V6.177c0-.62-.505-1.125-1.125-1.125zm-12.02-3.02c.228-.23.53-.355.852-.355.32 0 .623.126.852.355.758.763 1.512 2.711 1.25 2.983 0 0-.048.037-.208.037-.778 0-2.262-.808-2.747-1.296a1.227 1.227 0 010-1.724zm3.582 14.27H2.25v-6.75h6.188v6.75zm0-7.875H1.125v-2.25h7.313v2.25zm3.004-6.395a1.23 1.23 0 011.705 0 1.227 1.227 0 010 1.724c-.485.488-1.97 1.296-2.747 1.296-.16 0-.208-.036-.209-.037-.26-.272.493-2.22 1.251-2.983zm4.309 14.27H9.562v-6.75h6.188v6.75zm1.125-7.875H9.562v-2.25h7.313v2.25z" fill="#fff"/></svg>