<svg width="200" height="35" fill="none" xmlns="http://www.w3.org/2000/svg"><g clip-path="url(#clip0_70:20)"><path d="M65.923 27.688c-6.174 4.545-15.119 6.958-22.843 6.958-10.8 0-20.542-3.983-27.89-10.612-.587-.515-.07-1.241.633-.82 7.936 4.615 17.773 7.38 27.915 7.38 6.831 0 14.367-1.406 21.293-4.335 1.033-.468 1.925.656.892 1.43z" fill="#F90"/><path d="M68.506 24.737c-.775-1.007-5.212-.469-7.208-.234-.61.07-.704-.445-.164-.82 3.522-2.483 9.32-1.757 10.001-.937.68.843-.164 6.629-3.498 9.393-.516.422-.986.188-.775-.375.752-1.85 2.418-5.996 1.644-7.027z" fill="#F90"/><path d="M61.416 6.184V3.771c0-.374.281-.609.61-.609h10.8c.352 0 .633.258.633.61v2.06c0 .352-.305.797-.821 1.523l-5.611 7.988c2.089-.046 4.272.258 6.174 1.312.423.235.54.586.564.937v2.577c0 .351-.4.773-.799.539-3.334-1.734-7.747-1.921-11.41.023-.375.211-.774-.21-.774-.562v-2.436c0-.399 0-1.054.399-1.663l6.526-9.277H62.05c-.353 0-.634-.257-.634-.609zM21.998 21.2H18.71a.628.628 0 01-.587-.563V3.819c0-.328.282-.609.634-.609h3.075a.61.61 0 01.587.562v2.202h.07c.799-2.131 2.302-3.115 4.32-3.115 2.067 0 3.334.984 4.273 3.115.799-2.131 2.606-3.115 4.531-3.115 1.386 0 2.888.562 3.804 1.85 1.033 1.406.821 3.467.821 5.271v10.635c0 .328-.281.61-.634.61H36.32a.616.616 0 01-.587-.61v-8.948c0-.703.07-2.483-.094-3.163-.235-1.124-.986-1.452-1.925-1.452-.799 0-1.62.539-1.972 1.382-.329.843-.306 2.272-.306 3.233v8.925c0 .328-.281.609-.633.609h-3.287a.616.616 0 01-.587-.61v-8.924c0-1.874.305-4.638-2.02-4.638-2.37 0-2.276 2.693-2.276 4.638v8.925c0 .351-.282.609-.634.609zM82.78 2.858c4.883 0 7.512 4.193 7.512 9.487 0 5.13-2.911 9.206-7.513 9.206-4.789 0-7.395-4.193-7.395-9.393 0-5.224 2.63-9.3 7.395-9.3zm.023 3.42c-2.418 0-2.582 3.303-2.582 5.34 0 2.062-.024 6.443 2.558 6.443 2.56 0 2.677-3.537 2.677-5.716 0-1.429-.07-3.116-.493-4.474-.376-1.125-1.103-1.593-2.16-1.593zM96.631 21.2h-3.287a.616.616 0 01-.587-.61V3.749c.024-.305.305-.539.634-.539h3.052c.282.024.517.211.587.469v2.576h.07c.916-2.295 2.207-3.396 4.485-3.396 1.479 0 2.911.539 3.85 1.991.869 1.359.869 3.607.869 5.247v10.612a.635.635 0 01-.634.539h-3.287a.626.626 0 01-.587-.54v-9.182c0-1.85.211-4.544-2.066-4.544-.798 0-1.526.538-1.902 1.358-.47 1.031-.516 2.062-.516 3.186v9.066a.685.685 0 01-.681.609zM56.133 21.176a.675.675 0 01-.775.07c-1.08-.913-1.29-1.335-1.878-2.178-1.807 1.827-3.075 2.39-5.423 2.39-2.77 0-4.93-1.71-4.93-5.107 0-2.67 1.432-4.474 3.498-5.365 1.784-.773 4.273-.913 6.174-1.147v-.422c0-.773.07-1.71-.399-2.366-.399-.61-1.173-.843-1.854-.843-1.245 0-2.371.632-2.653 1.967-.047.305-.282.586-.564.61l-3.193-.352c-.258-.07-.563-.281-.493-.68.728-3.864 4.226-5.012 7.349-5.012 1.596 0 3.686.421 4.953 1.64 1.597 1.499 1.456 3.49 1.456 5.645v5.107c0 1.546.634 2.201 1.244 3.045.211.304.258.656-.023.867a93.732 93.732 0 00-2.489 2.131z" fill="#221F1F"/><path d="M52.8 13.165c0 1.288.023 2.342-.61 3.49-.517.914-1.362 1.5-2.278 1.5-1.268 0-1.995-.961-1.995-2.367 0-2.787 2.511-3.302 4.883-3.302v.679z" fill="#fff"/><path d="M13.006 21.176a.675.675 0 01-.774.07c-1.08-.913-1.292-1.335-1.879-2.178-1.807 1.827-3.099 2.366-5.423 2.366-2.77 0-4.93-1.71-4.93-5.107 0-2.67 1.456-4.474 3.498-5.364 1.784-.773 4.273-.914 6.174-1.148v-.422c0-.773.07-1.71-.399-2.365-.399-.61-1.173-.844-1.854-.844-1.245 0-2.371.633-2.653 1.968-.047.304-.282.586-.564.609L1.033 8.41C.775 8.34.47 8.129.54 7.73c.728-3.865 4.226-5.013 7.348-5.013 1.597 0 3.686.422 4.954 1.64 1.596 1.5 1.455 3.49 1.455 5.645v5.107c0 1.546.634 2.202 1.245 3.045.211.305.258.656 0 .867a72.43 72.43 0 00-2.536 2.155z" fill="#221F1F"/><path d="M9.696 13.165c0 1.288.024 2.342-.61 3.49-.517.914-1.362 1.5-2.277 1.5-1.268 0-1.996-.961-1.996-2.367 0-2.787 2.512-3.302 4.883-3.302v.679z" fill="#fff"/><path d="M121.141 0c-2.911 0-4.837.047-5.705.14-.376.047-.564.165-.611.352l-.047.21a131.393 131.393 0 01-2.699 9.91c-.353 1.1-.916 2.787-1.667 5.012-.728 2.226-1.291 3.89-1.644 5.013-.094.282.024.446.329.446.681 0 1.667.023 3.005.046 1.338.047 2.324.07 3.005.07.235 0 .376-.116.446-.35.141-.446.305-1.125.493-2.039.188-.913.352-1.593.493-2.061.118-.375.423-.562.892-.562.446 0 1.08.023 1.949.07.869.047 1.526.07 1.972.07 2.629 0 4.93-.796 6.926-2.39 1.878-1.498 3.193-3.466 3.967-5.879.752-2.366.54-4.287-.61-5.739C130.532.867 128.653.141 126.071.07c-1.573-.047-3.216-.07-4.93-.07zm31.858.398c-.869 0-1.714.234-2.489.68-.845.491-1.385 1.147-1.62 1.92-.258.82-.14 1.476.376 1.945.47.445 1.15.656 2.09.656 2.159 0 3.498-.867 4.061-2.624.235-.773.117-1.406-.399-1.897-.493-.446-1.15-.68-2.019-.68zm-30.004 4.38c2.489 0 3.381 1.172 2.63 3.491-.704 2.202-2.23 3.28-4.625 3.28-1.972 0-2.935-.094-2.864-.305.094-.304.234-.773.375-1.359.165-.609.306-1.077.399-1.382.681-2.178 1.104-3.35 1.221-3.467.165-.164 1.104-.257 2.864-.257zm71.347 1.031c-2.512 0-4.766.773-6.762 2.296-1.948 1.476-3.263 3.35-4.014 5.669-.751 2.366-.517 4.263.681 5.669 1.174 1.382 3.052 2.085 5.658 2.085 2.817 0 5.118-.656 6.878-1.968.212-.164.329-.281.353-.351.07-.258 0-.844-.259-1.757-.234-.914-.469-1.43-.657-1.523l-1.479.726c-1.15.492-2.207.726-3.169.726-.822 0-1.503-.14-2.043-.421-.681-.352-.986-.844-.939-1.5 2.629-.187 4.601-.327 5.94-.468 2.206-.21 3.38-.305 3.521-.328.751-.14 1.291-.726 1.62-1.733.61-1.945.399-3.608-.61-5.013-1.057-1.406-2.606-2.109-4.719-2.109zm-25.731.352c-.986 0-1.972.187-2.935.562-.657.258-1.596.75-2.793 1.452a3.683 3.683 0 01-.446.211c-.071 0 0-.351.187-1.03.212-.703.212-1.055 0-1.055-.328 0-.774.07-1.361.211-.822.188-1.291.305-1.409.305-.164.023-.657.07-1.502.14-.681.07-1.174.14-1.432.234a.581.581 0 00-.353.352c-.023.07-.047.14-.047.281-.399 2.061-.845 3.912-1.361 5.552-.258.796-.634 2.014-1.151 3.607-.516 1.593-.892 2.788-1.15 3.584-.07.258-.094.398-.07.445.047.047.187.094.446.094.868.07 1.643.094 2.324.094 1.056 0 1.855-.024 2.348-.07.281-.024.469-.07.54-.118.093-.07.164-.21.258-.468.282-.89.704-2.249 1.268-4.076.563-1.804.986-3.186 1.291-4.1.141-.421.563-.796 1.291-1.17.657-.352 1.244-.516 1.737-.516 1.198 0 1.573.726 1.104 2.155-.118.375-.282.937-.517 1.687-.211.75-.375 1.311-.493 1.686-.141.492-.399 1.195-.728 2.132-.328.937-.563 1.64-.727 2.108-.141.422-.047.61.258.61h5.001c.328 0 .539-.165.633-.493.141-.492.353-1.195.634-2.155.282-.96.493-1.686.634-2.155.657-2.038 1.057-3.28 1.244-3.701.212-.492.634-.914 1.245-1.312.634-.398 1.22-.609 1.737-.609 1.174 0 1.596.586 1.291 1.78-.188.75-.563 1.991-1.127 3.748a55.492 55.492 0 01-.704 2.085 45.166 45.166 0 00-.704 2.061c-.141.422-.047.68.258.727.305.07 1.127.093 2.465.093 1.291 0 2.113-.023 2.465-.07.352-.047.564-.234.681-.585.211-.633.493-1.57.845-2.835.376-1.265.657-2.225.845-2.858.165-.539.446-1.335.798-2.39.376-1.077.634-1.873.822-2.412.399-1.288.211-2.272-.61-2.951-.728-.61-1.808-.914-3.264-.914-.962 0-2.042.234-3.216.726-1.174.492-2.16 1.101-2.981 1.827 0-.82-.376-1.476-1.127-1.944-.611-.351-1.432-.562-2.442-.562zm-28.501.093c-.047 0-1.009.164-2.841.469-1.22.164-2.136.281-2.746.328-.188.047-.306.14-.353.304-.023.07-.023.141-.047.235 0 1.522-.399 3.467-1.126 5.81-.259.796-.634 2.014-1.151 3.607-.516 1.592-.892 2.787-1.15 3.584-.094.28.047.445.375.492.611.07 1.433.093 2.466.093 1.079 0 1.901-.023 2.441-.07.376-.023.587-.164.681-.398a11 11 0 00.329-1.289c.141-.585.258-1.007.352-1.311.141-.422.328-1.078.587-1.945.258-.89.469-1.546.61-1.967.258-.797.587-1.312.986-1.57.423-.258 1.08-.398 1.996-.398.188 0 .493.023.868.047.399.023.705.023.916.023.469 0 .775-.187.892-.585.071-.188.164-.586.329-1.172.141-.492.258-.866.352-1.148.094-.257.258-.655.516-1.241.235-.539.4-.937.493-1.242.071-.234-.187-.351-.798-.351-.986 0-2.089.258-3.31.796-1.103.469-1.643.727-1.62.774-.117-.047-.117-.352.024-.938.14-.632.117-.937-.071-.937zm7.982.516c-.305 0-.469.094-.54.304a1.48 1.48 0 00-.07.305c-.282 1.687-.892 3.959-1.784 6.793a71.862 71.862 0 01-1.057 3.14c-.469 1.381-.822 2.412-1.033 3.115a1.884 1.884 0 00-.117.445c.023.093.164.164.375.187.353.07 1.198.094 2.512.094 1.315 0 2.16-.024 2.559-.094.282-.047.47-.164.54-.375.235-.726.564-1.803.986-3.256.423-1.452.752-2.553.986-3.28.822-2.576 1.667-4.848 2.512-6.793.071-.14.118-.234.118-.28.07-.211-.047-.305-.305-.305-.329 0-.799.023-1.456.07-.657.047-1.15.07-1.455.07-.306 0-.799-.023-1.409-.093-.61 0-1.057-.047-1.362-.047zm44.372 2.905c.68 0 1.174.234 1.502.702.329.469.399 1.008.211 1.64-.023.117-.234.188-.61.234-1.784.235-3.075.352-3.897.352-.305 0-.423-.14-.329-.399.212-.655.611-1.241 1.174-1.733.61-.539 1.268-.796 1.949-.796z" fill="#4FA3C3"/></g><defs><clipPath id="clip0_70:20"><path fill="#fff" d="M0 0h200v34.646H0z"/></clipPath></defs></svg>