<?xml version="1.0" encoding="utf-8"?><svg viewBox="0 0 257 81" xmlns="http://www.w3.org/2000/svg" xmlns:xlink="http://www.w3.org/1999/xlink"><style>:root>svg{display:none}:root>svg:target{display:block}</style><svg fill="none" viewBox="0 0 22 20" id="amazon_ico" xmlns="http://www.w3.org/2000/svg"><path d="M.04 15.52c.067-.107.173-.114.32-.02 3.333 1.933 6.96 2.9 10.88 2.9 2.613 0 5.193-.487 7.74-1.46a16.677 16.677 0 00.56-.24c.2-.08.356-.04.47.12.113.16.076.306-.11.44-.24.173-.547.373-.92.6-1.147.68-2.427 1.206-3.84 1.58-1.413.373-2.793.56-4.14.56-2.08 0-4.047-.364-5.9-1.09a16.25 16.25 0 01-4.98-3.07c-.08-.067-.12-.133-.12-.2 0-.04.013-.08.04-.12zm6.02-5.7c0-.92.227-1.707.68-2.36.453-.654 1.073-1.147 1.86-1.48.72-.307 1.606-.527 2.66-.66.36-.04.946-.094 1.76-.16v-.34c0-.854-.094-1.427-.28-1.72-.28-.401-.72-.601-1.32-.601h-.16c-.44.04-.82.18-1.14.42-.32.24-.527.573-.62 1-.054.267-.187.42-.4.46L6.8 4.1c-.227-.053-.34-.173-.34-.36 0-.04.006-.087.02-.14.226-1.187.783-2.067 1.67-2.64C9.036.386 10.072.067 11.26 0h.5c1.52 0 2.707.393 3.56 1.18.133.134.257.278.37.43.113.153.203.29.27.41.066.12.126.293.18.52.053.226.093.383.12.47.027.086.047.273.06.56.013.286.02.456.02.51v4.84c0 .346.05.663.15.95.1.287.196.493.29.62.093.127.247.33.46.61a.6.6 0 01.12.32c0 .106-.053.2-.16.28l-1.8 1.56c-.16.12-.353.133-.58.04a6.843 6.843 0 01-.49-.46c-.14-.147-.24-.254-.3-.32a4.501 4.501 0 01-.29-.39 8.503 8.503 0 00-.28-.39c-.747.813-1.48 1.32-2.2 1.52-.453.133-1.014.2-1.68.2-1.027 0-1.87-.317-2.53-.95-.66-.633-.99-1.53-.99-2.69zm3.44-.4c0 .52.13.937.39 1.25.26.313.61.47 1.05.47.04 0 .097-.007.17-.02a1.04 1.04 0 01.15-.02c.56-.146.993-.506 1.3-1.08a3.14 3.14 0 00.33-.83c.073-.3.113-.543.12-.73.007-.186.01-.493.01-.92v-.5c-.774 0-1.36.054-1.76.16-1.174.333-1.76 1.073-1.76 2.22zm8.4 6.44a.627.627 0 01.12-.16c.333-.227.653-.38.96-.46.506-.133 1-.207 1.48-.22.133-.013.26-.007.38.02.6.053.96.153 1.08.3.054.08.08.2.08.36v.14c0 .467-.127 1.017-.38 1.65s-.607 1.143-1.06 1.53c-.067.053-.127.08-.18.08a.179.179 0 01-.08-.02c-.08-.04-.1-.114-.06-.22.494-1.16.74-1.967.74-2.42 0-.147-.027-.254-.08-.32-.133-.16-.507-.24-1.12-.24-.227 0-.494.013-.8.04-.334.04-.64.08-.92.12-.08 0-.133-.013-.16-.04-.027-.027-.033-.053-.02-.08 0-.013.007-.033.02-.06z" fill="#fff"/></svg><svg fill="none" viewBox="0 0 40 40" id="arrow_down" xmlns="http://www.w3.org/2000/svg"><g clip-path="url(#bclip0_14:293)"><path d="M21.098 30.323l18.47-18.47a1.54 1.54 0 00-2.176-2.176L20.009 27.059 2.627 9.677a1.54 1.54 0 00-2.176 2.176l18.47 18.47c.601.601 1.576.601 2.177 0z" fill="#000" fill-opacity=".6"/></g><defs><clipPath id="bclip0_14:293"><path fill="#fff" transform="rotate(90 20 20)" d="M0 0h40v40H0z"/></clipPath></defs></svg><svg fill="none" viewBox="0 0 80 81" id="icon-1" xmlns="http://www.w3.org/2000/svg"><g clip-path="url(#cclip0_14:225)" fill="#000"><path d="M51.484 35.906c0 9.282 4.032 16.563 9.172 16.563 5.14 0 9.172-7.282 9.172-16.563 0-9.281-4.031-16.562-9.172-16.562-5.14 0-9.172 7.281-9.172 16.562zm16.157 0c0 7.797-3.204 14.375-6.985 14.375s-6.984-6.578-6.984-14.375 3.203-14.375 6.984-14.375c3.782 0 6.985 6.594 6.985 14.375z"/><path d="M78.906 0h-36.5c-.61 0-1.093.484-1.093 1.094V6.64l3.218 32.453H43.25V38.03c0-2.61-1.844-4.86-4.406-5.375a21.157 21.157 0 00-4.016-11.468l-2.703-3.735A1.088 1.088 0 0031.25 17a1.019 1.019 0 00-.875.422l-3.25 4.25a11.132 11.132 0 01-8.813 4.344 7.616 7.616 0 00-7.546 6.625 5.475 5.475 0 00-4.454 5.375v1.062H4.845c-.61 0-1.094.484-1.094 1.094v7.203H1.094c-.61 0-1.094.484-1.094 1.094v12.328a30.739 30.739 0 006.484 18.812c.204.266.532.422.86.422h34.843c.344 0 .657-.156.86-.422a30.956 30.956 0 004.078-6.984v3.781A3.594 3.594 0 0050.719 80h19.75a3.594 3.594 0 003.594-3.594v-10.64a.962.962 0 00.109-.36L80 6.641v-.047-5.5C80 .484 79.516 0 78.906 0zM8.47 38.031c0-1.812 1.484-3.281 3.297-3.281h9.265c.61 0 1.094-.484 1.094-1.094 0-.61-.484-1.093-1.094-1.093H12.97a5.45 5.45 0 015.312-4.344 13.392 13.392 0 0010.547-5.203l2.36-3.078 1.843 2.546a18.754 18.754 0 013.578 10.078H34.5c-.61 0-1.094.485-1.094 1.094 0 .61.485 1.094 1.094 1.094h3.031c.032 0 .078 0 .11-.016.03 0 .062.016.093.016h.016a3.28 3.28 0 013.281 3.281v1.063H8.47V38.03zm-2.563 7.39H19.22c.61 0 1.093-.483 1.093-1.093s-.484-1.094-1.093-1.094H5.906v-1.953H43.61v1.953H30.312c-.609 0-1.093.485-1.093 1.094 0 .61.484 1.094 1.093 1.094h13.313v1.969H5.906v-1.97zm41.438 15.392c0 .562-.032 1.156-.063 1.734 0 .078 0 .172-.015.25-.047.562-.094 1.14-.172 1.703a28.563 28.563 0 01-5.453 13.375H7.875a28.63 28.63 0 01-5.688-17.063V49.578h45.157v11.234zM71.89 76.406a1.4 1.4 0 01-1.407 1.406H50.72a1.4 1.4 0 01-1.407-1.406v-5.719h22.563v5.72h.016zm0-7.906H49.312v-2.11h22.563v2.11h.016zm.203-4.297h-22.75c0-.078.015-.14.015-.219.047-.422.078-.843.11-1.25 0-.125.015-.25.031-.375.031-.515.047-1.03.047-1.547V48.484c0-.609-.484-1.093-1.094-1.093h-.89L43.624 7.625h34.078l-5.61 56.578zm5.719-58.766H43.5v-3.25h34.313v3.25z"/><path d="M30.469 32.563H28.28c-.61 0-1.093.484-1.093 1.093 0 .61.484 1.094 1.093 1.094h2.188c.61 0 1.093-.484 1.093-1.094 0-.61-.484-1.093-1.093-1.093zM24.5 54.547c-9.281 0-16.563 4.031-16.563 9.172 0 5.14 7.282 9.172 16.563 9.172 9.281 0 16.563-4.032 16.563-9.172 0-5.14-7.282-9.172-16.563-9.172zm0 16.156c-7.797 0-14.375-3.203-14.375-6.984 0-3.782 6.578-6.985 14.375-6.985s14.375 3.203 14.375 6.985c0 3.781-6.594 6.984-14.375 6.984z"/></g><defs><clipPath id="cclip0_14:225"><path fill="#fff" d="M0 0h80v80.047H0z"/></clipPath></defs></svg><svg fill="none" viewBox="0 0 68 80" id="icon-2" xmlns="http://www.w3.org/2000/svg"><g clip-path="url(#dclip0_14:235)" fill="#000"><path d="M.33 79.624c.219.235.548.376.878.376H66.54c.33 0 .643-.141.878-.376.22-.236.346-.565.33-.895l-2.73-53.082V25.6c0-.047-.015-.094-.015-.141v-.032-.03a.562.562 0 00-.063-.173c0-.016-.016-.016-.016-.032l-.031-.063c0-.015-.016-.031-.016-.047L60.8 18.274a1.21 1.21 0 00-1.035-.58h-2.51l.988-4.25a1.224 1.224 0 00-.141-.91 1.19 1.19 0 00-.753-.534L45.082 9.13l-.016-.095C43.921 3.796 39.231 0 33.867 0a11.487 11.487 0 00-9.223 4.69c-.047.063-.094.157-.141.251l-.032.079L9.098 6.84a1.2 1.2 0 00-1.051 1.333l1.13 9.521H8.015c-.424 0-.816.22-1.036.58l-4.078 6.808c-.016.016-.016.047-.032.063l-.015.047c-.032.079-.063.141-.079.204v.031c-.015.063-.015.126-.031.189v.031L0 78.73c-.016.33.11.66.33.895zM56.658 20.11h2.4l2.635 4.392h-6.055l1.02-4.392zm-1.067-6.04l-2.447 10.432h-8.126l-2.525-10.51a1.214 1.214 0 00-.55-.753 1.155 1.155 0 00-.909-.141l-2.447.596.8-3.42 16.204 3.797zM42.557 24.503H21.835l-.972-4.063 19.592-4.706 2.102 8.769zM28.407 4.251a9.095 9.095 0 015.46-1.851c3.702 0 7.09 2.337 8.423 5.82l.11.282-3.624-.847a1.16 1.16 0 00-.91.157 1.19 1.19 0 00-.533.753l-1.349 5.772-1.647.392-1.13-9.521a1.164 1.164 0 00-.454-.8 1.207 1.207 0 00-.894-.251l-3.906.455.455-.361zm2.542 2.431l1.02 8.612-12.848 3.09a1.21 1.21 0 00-.894 1.46l1.13 4.674h-6.965l-1.82-15.436 20.377-2.4zM8.69 20.11h.753l.518 4.392H6.039L8.69 20.11zM2.478 77.427l2.589-50.51h57.6v.142l2.588 50.525H2.478v-.157z"/><path d="M33.867 54.133c6.29 0 11.42-5.113 11.42-11.42V37.6l.11-.031a3.924 3.924 0 00-1.303-7.624 3.923 3.923 0 00-3.921 3.922 3.94 3.94 0 002.62 3.702l.11.031v5.114c0 4.972-4.048 9.004-9.005 9.004-4.972 0-9.004-4.047-9.004-9.004V37.6l.11-.031a3.924 3.924 0 00-1.302-7.624 3.923 3.923 0 00-3.921 3.922 3.94 3.94 0 002.62 3.702l.11.031v5.114c-.048 6.306 5.066 11.42 11.356 11.42zm8.973-19.357l-.11-.235a1.45 1.45 0 01-.157-.659c0-.831.674-1.521 1.521-1.521.847 0 1.522.674 1.522 1.521 0 .267-.078.518-.204.753l-.141.236-.141-.236a1.192 1.192 0 00-1.036-.596h-.11c-.392 0-.768.188-.988.518l-.156.22zm-20.487-.14a1.47 1.47 0 01-.204-.754c0-.831.675-1.521 1.522-1.521a1.513 1.513 0 011.318 2.274l-.142.236-.14-.236a1.192 1.192 0 00-1.036-.596c-.424 0-.816.22-1.035.596l-.142.236-.14-.236z"/></g><defs><clipPath id="dclip0_14:235"><path fill="#fff" d="M0 0h67.749v80H0z"/></clipPath></defs></svg><svg fill="none" viewBox="0 0 81 80" id="icon-3" xmlns="http://www.w3.org/2000/svg"><g clip-path="url(#eclip0_14:242)" fill="#000"><path d="M21.296 13.304a2.022 2.022 0 00-2.017-2.017h-3.405l.079-.536c.488-3.563 2.632-3.768 3.436-3.83a1.101 1.101 0 001.009-1.104V1.103c0-.3-.126-.599-.347-.803-.205-.19-.473-.3-.757-.3h-.063C14.44.268 8.75 2.696 8.75 12.721v8.197c0 1.104.898 2.018 2.017 2.018h8.528a1.99 1.99 0 002.002-2.002v-7.63zM19.09 20.73h-8.134v-8.008c0-6.1 2.176-9.474 6.668-10.31l.568-.11v2.586l-.331.094c-1.923.584-4.209 2.349-4.209 7.41 0 .614.489 1.103 1.103 1.103h4.351v7.235h-.016zM37.407 13.304a2.022 2.022 0 00-2.018-2.017H32l.079-.536c.489-3.563 2.633-3.768 3.436-3.83a1.101 1.101 0 001.01-1.104V1.103c0-.3-.127-.599-.347-.803-.206-.19-.473-.3-.757-.3h-.063C30.58.268 24.875 2.696 24.875 12.721v8.197c0 1.104.898 2.018 2.018 2.018h8.528a1.99 1.99 0 002.002-2.002v-7.63h-.016zM35.2 20.73h-8.134v-8.008c0-6.1 2.175-9.474 6.668-10.31l.568-.11v2.586l-.331.094c-1.924.584-4.21 2.349-4.21 7.41 0 .614.49 1.103 1.104 1.103h4.35v7.235H35.2zM43.586 12.043a1.35 1.35 0 00-.946.394 1.35 1.35 0 00-.394.946c0 .347.142.694.394.946s.6.394.946.394c.347 0 .694-.142.946-.394a1.35 1.35 0 00.394-.946 1.35 1.35 0 00-.394-.946 1.35 1.35 0 00-.946-.394z"/><path d="M5.312 25.82a1.369 1.369 0 00-.646-.173 1.34 1.34 0 00-.363.048c-.346.094-.63.33-.803.63A27.811 27.811 0 000 39.82C0 55.14 12.469 67.594 27.775 67.594h17.167l12.012 12.012c.252.252.583.394.946.394.173 0 .346-.032.52-.095.504-.204.82-.693.82-1.245V66.76l.173-.048a28.047 28.047 0 0014.502-9.269 27.824 27.824 0 006.306-17.623c0-15.323-12.47-27.776-27.776-27.776H50.46a1.339 1.339 0 100 2.68h1.986c13.84 0 25.096 11.255 25.096 25.096 0 11.807-8.386 22.148-19.925 24.56a1.348 1.348 0 00-1.072 1.308v9.726l-10.12-10.12a1.35 1.35 0 00-.946-.395H27.775C13.935 64.915 2.68 53.66 2.68 39.819c0-4.271 1.087-8.48 3.153-12.184a1.324 1.324 0 00-.52-1.813z"/><path d="M59.523 27.744h-38.81a1.339 1.339 0 100 2.68h38.794c.741 0 1.34-.6 1.34-1.34 0-.741-.583-1.34-1.324-1.34zM59.523 36.146h-38.81a1.339 1.339 0 100 2.68h38.794c.741 0 1.34-.6 1.34-1.34 0-.741-.583-1.34-1.324-1.34zM59.523 44.564h-38.81a1.339 1.339 0 100 2.68h38.794c.741 0 1.34-.6 1.34-1.34 0-.741-.583-1.34-1.324-1.34zM59.523 52.965H38.841a1.339 1.339 0 100 2.68h20.682c.741 0 1.34-.599 1.34-1.34 0-.74-.615-1.34-1.34-1.34zM29.967 52.965h-.032a1.339 1.339 0 100 2.68h.032a1.339 1.339 0 100-2.68z"/></g><defs><clipPath id="eclip0_14:242"><path fill="#fff" d="M0 0h80.237v80H0z"/></clipPath></defs></svg><svg fill="none" viewBox="0 0 73 80" id="icon-4" xmlns="http://www.w3.org/2000/svg"><g clip-path="url(#fclip0_14:81)" fill="#000"><path d="M41.225 37.408c0-3.515-2.88-6.394-6.394-6.394h-5.169a3.944 3.944 0 110-7.889h6.457a2.66 2.66 0 012.656 2.656 1.225 1.225 0 002.45 0c0-2.815-2.29-5.09-5.106-5.105h-2.656v-3.944a1.225 1.225 0 00-2.45 0v3.944h-1.367a6.394 6.394 0 000 12.787h5.185a3.944 3.944 0 110 7.889h-6.457a2.66 2.66 0 01-2.656-2.656 1.225 1.225 0 00-2.45 0c0 2.815 2.29 5.09 5.106 5.105h2.64v3.944a1.225 1.225 0 002.45 0v-3.944h1.367c3.515 0 6.378-2.863 6.394-6.393z"/><path d="M71.746 56.35a19.409 19.409 0 00-8.891-12.23l-.51-.303.208-.557a31.787 31.787 0 001.924-11.021C64.477 14.457 50.02 0 32.24 0 14.457 0 0 14.457 0 32.239c0 17.78 14.457 32.238 32.239 32.238.334 0 .7 0 1.129-.016l.588-.016.127.573c1.162 5.026 4.2 9.304 8.573 12.04a19.193 19.193 0 0014.585 2.449C67.626 77.105 74.13 66.72 71.746 56.35zM33.86 57.543a18.79 18.79 0 00-.255 3.133c0 .207 0 .413.016.62l.016.716-.715.016h-.669c-16.445 0-29.805-13.36-29.805-29.79C2.45 15.81 15.81 2.45 32.24 2.45c16.429 0 29.789 13.36 29.789 29.79 0 3.355-.557 6.648-1.654 9.813l-.239.684-.684-.239a19.11 19.11 0 00-3.642-.922l-.859-.128.302-.827a24.299 24.299 0 001.48-8.381c0-13.503-10.99-24.493-24.493-24.493-13.503 0-24.493 10.99-24.493 24.493 0 13.503 10.99 24.493 24.493 24.493.286 0 .588 0 .89-.016l.875-.032-.143.859zm.875-3.404l-.446.048c-.7.064-1.4.095-2.051.095-12.151 0-22.044-9.892-22.044-22.043s9.892-22.044 22.044-22.044c12.15 0 22.043 9.892 22.043 22.044a21.394 21.394 0 01-1.797 8.715l-.175.414-.445.032c-7.57.413-14.235 5.264-16.97 12.342l-.16.397zm18.178 23.412c-9.304 0-16.874-7.57-16.874-16.875 0-9.304 7.57-16.875 16.874-16.875 9.305 0 16.875 7.57 16.875 16.875-.016 9.288-7.57 16.859-16.875 16.875z"/><path d="M58.084 67.197h-9.05a2.66 2.66 0 01-2.656-2.656v-5.17a2.66 2.66 0 012.656-2.655h6.092l-3.07 3.085c-.477.477-.493 1.257-.016 1.734.477.477 1.256.493 1.734.016l.015-.016 5.17-5.17a1.229 1.229 0 000-1.733l-5.17-5.169a1.229 1.229 0 00-.858-.35c-.334 0-.637.127-.86.366a1.239 1.239 0 000 1.718l3.086 3.085h-6.091c-2.815 0-5.09 2.29-5.106 5.106v5.169c0 2.815 2.29 5.09 5.106 5.105h9.05c.667 0 1.224-.54 1.224-1.225 0-.684-.572-1.24-1.256-1.24z"/></g><defs><clipPath id="fclip0_14:81"><path fill="#fff" d="M0 0h72.239v80H0z"/></clipPath></defs></svg><svg fill="none" viewBox="0 0 257 58" id="red_arrow" xmlns="http://www.w3.org/2000/svg"><g clip-path="url(#gclip0_70:718)" fill="#E40000"><path d="M.466 5.916c.757-1.276 2.039-1.334 3.728-.232C43.105 28.188 85.511 39.44 131.296 39.44c30.523 0 60.638-5.684 90.404-16.994.758-.29 1.923-.754 3.379-1.392a315.21 315.21 0 003.145-1.392c2.33-.928 4.194-.464 5.476 1.392 1.34 1.856.874 3.538-1.282 5.104-2.796 2.03-6.407 4.35-10.718 6.96-13.397 7.888-28.368 14.036-44.852 18.386C160.363 55.854 144.228 58 128.5 58c-24.29 0-47.24-4.234-68.91-12.702-21.67-8.41-41.066-20.358-58.192-35.67C.466 8.874 0 8.062 0 7.308c0-.464.175-.928.466-1.392z"/><path d="M209.118 9.86c.291-.638.757-1.218 1.398-1.856 3.903-2.61 7.631-4.408 11.242-5.336C227.7 1.102 233.467.29 239.059.116c1.573-.174 3.029-.058 4.427.232 6.99.638 11.242 1.798 12.64 3.48.641.928.932 2.32.932 4.176v1.624c0 5.452-1.456 11.832-4.427 19.198-2.971 7.366-7.106 13.282-12.407 17.806-.757.638-1.456.928-2.097.928-.291 0-.641-.058-.932-.232-.932-.464-1.165-1.334-.699-2.552 5.767-13.514 8.621-22.852 8.621-28.13 0-1.682-.291-2.958-.932-3.712-1.573-1.856-5.942-2.784-13.106-2.784-2.622 0-5.767.174-9.321.464-3.902.464-7.456.928-10.718 1.392-.932 0-1.572-.174-1.864-.464-.291-.29-.407-.638-.233-.928-.058-.232 0-.464.175-.754z"/></g><defs><clipPath id="gclip0_70:718"><path fill="#fff" d="M0 0h257v58H0z"/></clipPath></defs></svg><svg fill="none" viewBox="0 0 16 16" id="star" xmlns="http://www.w3.org/2000/svg"><g clip-path="url(#hclip0_14:315)"><path d="M15.977 6.164a.468.468 0 00-.378-.319l-4.96-.72L8.42.63a.469.469 0 00-.84 0L5.36 5.124l-4.96.721a.469.469 0 00-.26.8l3.59 3.498-.848 4.94a.469.469 0 00.68.495L8 13.245l4.436 2.333a.469.469 0 00.68-.495l-.847-4.94 3.59-3.498a.468.468 0 00.118-.48z" fill="#000"/></g><defs><clipPath id="hclip0_14:315"><path fill="#fff" d="M0 0h16v16H0z"/></clipPath></defs></svg></svg>