<svg width="257" height="58" viewBox="0 0 257 58" fill="none" xmlns="http://www.w3.org/2000/svg">
<g clip-path="url(#clip0_70:718)">
<path d="M0.466002 5.91634C1.22325 4.64034 2.50476 4.58234 4.19402 5.68434C43.1052 28.1883 85.5113 39.4403 131.296 39.4403C161.819 39.4403 191.934 33.7563 221.7 22.4463C222.458 22.1563 223.623 21.6923 225.079 21.0543C226.535 20.4163 227.584 19.9523 228.224 19.6623C230.554 18.7343 232.418 19.1983 233.7 21.0543C235.04 22.9103 234.574 24.5923 232.418 26.1583C229.622 28.1883 226.011 30.5083 221.7 33.1183C208.303 41.0063 193.332 47.1543 176.848 51.5043C160.363 55.8543 144.228 58.0003 128.5 58.0003C104.21 58.0003 81.2591 53.7663 59.59 45.2983C37.9209 36.8883 18.5236 24.9403 1.39801 9.62834C0.466002 8.87434 0 8.06234 0 7.30834C0 6.84434 0.174751 6.38034 0.466002 5.91634Z" fill="#E40000"/>
<path d="M209.118 9.85993C209.409 9.22193 209.875 8.64193 210.516 8.00393C214.419 5.39393 218.147 3.59593 221.758 2.66793C227.7 1.10193 233.467 0.289933 239.059 0.115933C240.632 -0.058067 242.088 0.057933 243.486 0.347933C250.476 0.985933 254.728 2.14593 256.126 3.82793C256.767 4.75593 257.058 6.14793 257.058 8.00393V9.62794C257.058 15.0799 255.602 21.4599 252.631 28.8259C249.66 36.1919 245.525 42.1079 240.224 46.6319C239.467 47.2699 238.768 47.5599 238.127 47.5599C237.836 47.5599 237.486 47.5019 237.195 47.3279C236.263 46.8639 236.03 45.9939 236.496 44.7759C242.263 31.2619 245.117 21.9239 245.117 16.6459C245.117 14.9639 244.826 13.6879 244.185 12.9339C242.612 11.0779 238.243 10.1499 231.079 10.1499C228.457 10.1499 225.312 10.3239 221.758 10.6139C217.856 11.0779 214.302 11.5419 211.04 12.0059C210.108 12.0059 209.468 11.8319 209.176 11.5419C208.885 11.2519 208.769 10.9039 208.943 10.6139C208.885 10.3819 208.943 10.1499 209.118 9.85993Z" fill="#E40000"/>
</g>
<defs>
<clipPath id="clip0_70:718">
<rect width="257" height="58" fill="white"/>
</clipPath>
</defs>
</svg>
